{"accessors":[{"bufferView":0,"componentType":5121,"count":276,"max":[139],"min":[0],"type":"SCALAR"},{"bufferView":1,"componentType":5126,"count":140,"max":[1.0,1.0,1.0],"min":[-1.0,-1.0,-1.0],"type":"VEC3"},{"bufferView":2,"componentType":5126,"count":140,"max":[1.0,1.0,1.0],"min":[-1.0,-1.0,-1.0],"type":"VEC3"},{"bufferView":3,"componentType":5126,"count":140,"max":[0.875,1.0],"min":[0.125,0.0],"type":"VEC2"},{"bufferView":4,"componentType":5123,"count":3252,"max":[1405],"min":[0],"type":"SCALAR"},{"bufferView":5,"componentType":5126,"count":1406,"max":[3.3680784702301025,1.0,1.0],"min":[-2.6635899543762207,-94.66239166259766,-1.0],"type":"VEC3"},{"bufferView":6,"componentType":5126,"count":1406,"max":[1.0,1.0,1.0],"min":[-1.0,-1.0,-1.0],"type":"VEC3"},{"bufferView":7,"componentType":5126,"count":1406,"max":[0.875,1.0],"min":[0.125,0.0],"type":"VEC2"},{"bufferView":8,"componentType":5123,"count":2052,"max":[911],"min":[0],"type":"SCALAR"},{"bufferView":9,"componentType":5126,"count":912,"max":[1.0002378225326538,1.0,1.0],"min":[-1.0,-319.8451232910156,-1.0],"type":"VEC3"},{"bufferView":10,"componentType":5126,"count":912,"max":[1.0,1.0,1.0],"min":[-1.0,-1.0,-1.0],"type":"VEC3"},{"bufferView":11,"componentType":5126,"count":912,"max":[0.875,1.0],"min":[0.125,0.0],"type":"VEC2"},{"bufferView":12,"componentType":5123,"count":972,"max":[461],"min":[0],"type":"SCALAR"},{"bufferView":13,"componentType":5126,"count":462,"max":[1.0,1.0,1.0],"min":[-1.0,-319.4635925292969,-1.0],"type":"VEC3"},{"bufferView":14,"componentType":5126,"count":462,"max":[1.0,1.0,1.0],"min":[-1.0,-1.0,-1.0],"type":"VEC3"},{"bufferView":15,"componentType":5126,"count":462,"max":[0.8750000596046448,1.0],"min":[0.125,0.0],"type":"VEC2"},{"bufferView":16,"componentType":5123,"count":972,"max":[461],"min":[0],"type":"SCALAR"},{"bufferView":17,"componentType":5126,"count":462,"max":[1.0,1.0,1.0],"min":[-1.0,-319.4635925292969,-1.0],"type":"VEC3"},{"bufferView":18,"componentType":5126,"count":462,"max":[1.0,1.0,1.0],"min":[-1.0,-1.0,-1.0],"type":"VEC3"},{"bufferView":19,"componentType":5126,"count":462,"max":[0.8750000596046448,1.0],"min":[0.125,0.0],"type":"VEC2"},{"bufferView":20,"componentType":5121,"count":6,"max":[3],"min":[0],"type":"SCALAR"},{"bufferView":21,"componentType":5126,"count":4,"max":[1.0,0.0,1.0],"min":[-1.0,0.0,-1.0],"type":"VEC3"},{"bufferView":22,"componentType":5126,"count":4,"max":[0.0,1.0,-0.0],"min":[0.0,1.0,-0.0],"type":"VEC3"},{"bufferView":23,"componentType":5126,"count":4,"max":[1.0,1.0],"min":[0.0,0.0],"type":"VEC2"},{"bufferView":24,"componentType":5121,"count":6,"max":[3],"min":[0],"type":"SCALAR"},{"bufferView":25,"componentType":5126,"count":4,"max":[1.0,0.0,1.0],"min":[-1.0,0.0,-1.0],"type":"VEC3"},{"bufferView":26,"componentType":5126,"count":4,"max":[0.0,1.0,-0.0],"min":[0.0,1.0,-0.0],"type":"VEC3"},{"bufferView":27,"componentType":5126,"count":4,"max":[1.0,1.0],"min":[0.0,0.0],"type":"VEC2"},{"bufferView":28,"componentType":5121,"count":6,"max":[3],"min":[0],"type":"SCALAR"},{"bufferView":29,"componentType":5126,"count":4,"max":[1.0,0.0,1.0],"min":[-1.0,0.0,-1.0],"type":"VEC3"},{"bufferView":30,"componentType":5126,"count":4,"max":[0.0,1.0,-0.0],"min":[0.0,1.0,-0.0],"type":"VEC3"},{"bufferView":31,"componentType":5126,"count":4,"max":[1.0,1.0],"min":[0.0,0.0],"type":"VEC2"},{"bufferView":32,"componentType":5121,"count":6,"max":[3],"min":[0],"type":"SCALAR"},{"bufferView":33,"componentType":5126,"count":4,"max":[1.0,0.0,1.0],"min":[-1.0,0.0,-1.0],"type":"VEC3"},{"bufferView":34,"componentType":5126,"count":4,"max":[0.0,1.0,-0.0],"min":[0.0,1.0,-0.0],"type":"VEC3"},{"bufferView":35,"componentType":5126,"count":4,"max":[1.0,1.0],"min":[0.0,0.0],"type":"VEC2"}],"asset":{"generator":"Verge3D for Blender","version":"2.0"},"bufferViews":[{"buffer":0,"byteLength":276,"byteOffset":0,"target":34963},{"buffer":0,"byteLength":1680,"byteOffset":276,"target":34962},{"buffer":0,"byteLength":1680,"byteOffset":1956,"target":34962},{"buffer":0,"byteLength":1120,"byteOffset":3636,"target":34962},{"buffer":0,"byteLength":6504,"byteOffset":4756,"target":34963},{"buffer":0,"byteLength":16872,"byteOffset":11260,"target":34962},{"buffer":0,"byteLength":16872,"byteOffset":28132,"target":34962},{"buffer":0,"byteLength":11248,"byteOffset":45004,"target":34962},{"buffer":0,"byteLength":4104,"byteOffset":56252,"target":34963},{"buffer":0,"byteLength":10944,"byteOffset":60356,"target":34962},{"buffer":0,"byteLength":10944,"byteOffset":71300,"target":34962},{"buffer":0,"byteLength":7296,"byteOffset":82244,"target":34962},{"buffer":0,"byteLength":1944,"byteOffset":89540,"target":34963},{"buffer":0,"byteLength":5544,"byteOffset":91484,"target":34962},{"buffer":0,"byteLength":5544,"byteOffset":97028,"target":34962},{"buffer":0,"byteLength":3696,"byteOffset":102572,"target":34962},{"buffer":0,"byteLength":1944,"byteOffset":106268,"target":34963},{"buffer":0,"byteLength":5544,"byteOffset":108212,"target":34962},{"buffer":0,"byteLength":5544,"byteOffset":113756,"target":34962},{"buffer":0,"byteLength":3696,"byteOffset":119300,"target":34962},{"buffer":0,"byteLength":6,"byteOffset":122996,"target":34963},{"buffer":0,"byteLength":48,"byteOffset":123004,"target":34962},{"buffer":0,"byteLength":48,"byteOffset":123052,"target":34962},{"buffer":0,"byteLength":32,"byteOffset":123100,"target":34962},{"buffer":0,"byteLength":6,"byteOffset":123132,"target":34963},{"buffer":0,"byteLength":48,"byteOffset":123140,"target":34962},{"buffer":0,"byteLength":48,"byteOffset":123188,"target":34962},{"buffer":0,"byteLength":32,"byteOffset":123236,"target":34962},{"buffer":0,"byteLength":6,"byteOffset":123268,"target":34963},{"buffer":0,"byteLength":48,"byteOffset":123276,"target":34962},{"buffer":0,"byteLength":48,"byteOffset":123324,"target":34962},{"buffer":0,"byteLength":32,"byteOffset":123372,"target":34962},{"buffer":0,"byteLength":6,"byteOffset":123404,"target":34963},{"buffer":0,"byteLength":48,"byteOffset":123412,"target":34962},{"buffer":0,"byteLength":48,"byteOffset":123460,"target":34962},{"buffer":0,"byteLength":32,"byteOffset":123508,"target":34962}],"buffers":[{"byteLength":123540,"uri":"objectsDatacenter.bin"}],"cameras":[{"extensions":{"S8S_v3d_camera":{"controls":"ORBIT","enablePan":true,"moveSpeed":1,"orbitMaxDistance":10000,"orbitMaxPolarAngle":3.141592653589793,"orbitMinDistance":0,"orbitMinPolarAngle":0,"orbitTarget":[7.954631328582764,4.858658313751221,-2.19624662399292],"rotateSpeed":1,"viewportFitInitialAspect":1,"viewportFitType":"VERTICAL"}},"name":"__DEFAULT__","perspective":{"aspectRatio":1,"yfov":0.7853981633974483,"zfar":1000.0,"znear":0.009999999776482582},"type":"perspective"}],"extensions":{"S8S_v3d_lights":{"lights":[{"color":[1.0,1.0,1.0],"decay":2,"distance":72.27655234657374,"intensity":5223.89990234375,"name":"Point","profile":"blender","shadow":{"bias":-0.0018,"cameraFar":72.27655234657374,"cameraFov":0,"cameraNear":0.05000000074505806,"enabled":false,"expBias":2.5,"mapSize":512,"radius":1.0,"slopeScaledBias":2.5},"type":"point"}]}},"extensionsUsed":["S8S_v3d_materials","S8S_v3d_camera","S8S_v3d_lights","S8S_v3d_mesh","S8S_v3d_node","S8S_v3d_scene"],"materials":[{"extensions":{"S8S_v3d_materials":{"gtaoVisible":true,"materialIndex":0,"nodeGraph":{"edges":[{"fromNode":1,"fromOutput":0,"toInput":0,"toNode":0}],"nodes":[{"inputs":[[0,0,0,0],[0,0,0,0]],"is_active_output":true,"name":"World Output","outputs":[],"type":"OUTPUT_WORLD_BL"},{"inputs":[[0.05087608844041824,0.05087608844041824,0.05087608844041824,1.0],1.0],"is_active_output":false,"name":"Background","outputs":[[0,0,0,0]],"type":"BACKGROUND_BL"}]},"useCastShadows":true}},"name":"Verge3D_Environment_World"},{"extensions":{"S8S_v3d_materials":{"nodeGraph":{"edges":[{"fromNode":1,"fromOutput":0,"toInput":0,"toNode":0}],"nodes":[{"inputs":[[0,0,0,0],[0,0,0,0],[0,0,0]],"is_active_output":true,"name":"Material Output","outputs":[],"type":"OUTPUT_MATERIAL_BL"},{"inputs":[[0.800000011920929,0.800000011920929,0.800000011920929,1.0],0.0,[0.0,0.0,0.0]],"is_active_output":false,"name":"Diffuse BSDF","outputs":[[0,0,0,0]],"type":"BSDF_DIFFUSE_BL"}]},"useCastShadows":true,"useShadows":true}},"name":"v3d_default_material"}],"meshes":[{"extensions":{"S8S_v3d_mesh":{"colorLayers":{},"uvLayers":{}}},"name":"Cube","primitives":[{"attributes":{"NORMAL":2,"POSITION":1,"TEXCOORD_0":3},"indices":0,"material":1,"mode":4}]},{"extensions":{"S8S_v3d_mesh":{"colorLayers":{},"uvLayers":{}}},"name":"Cube.002","primitives":[{"attributes":{"NORMAL":6,"POSITION":5,"TEXCOORD_0":7},"indices":4,"material":1,"mode":4}]},{"extensions":{"S8S_v3d_mesh":{"colorLayers":{},"uvLayers":{}}},"name":"Cube.003","primitives":[{"attributes":{"NORMAL":10,"POSITION":9,"TEXCOORD_0":11},"indices":8,"material":1,"mode":4}]},{"extensions":{"S8S_v3d_mesh":{"colorLayers":{},"uvLayers":{}}},"name":"Cube.004","primitives":[{"attributes":{"NORMAL":14,"POSITION":13,"TEXCOORD_0":15},"indices":12,"material":1,"mode":4}]},{"extensions":{"S8S_v3d_mesh":{"colorLayers":{},"uvLayers":{}}},"name":"Cube.005","primitives":[{"attributes":{"NORMAL":18,"POSITION":17,"TEXCOORD_0":19},"indices":16,"material":1,"mode":4}]},{"extensions":{"S8S_v3d_mesh":{"colorLayers":{},"uvLayers":{}}},"name":"Plane.403","primitives":[{"attributes":{"NORMAL":22,"POSITION":21,"TEXCOORD_0":23},"indices":20,"material":1,"mode":4}]},{"extensions":{"S8S_v3d_mesh":{"colorLayers":{},"uvLayers":{}}},"name":"Plane.404","primitives":[{"attributes":{"NORMAL":26,"POSITION":25,"TEXCOORD_0":27},"indices":24,"material":1,"mode":4}]},{"extensions":{"S8S_v3d_mesh":{"colorLayers":{},"uvLayers":{}}},"name":"Plane.405","primitives":[{"attributes":{"NORMAL":30,"POSITION":29,"TEXCOORD_0":31},"indices":28,"material":1,"mode":4}]},{"extensions":{"S8S_v3d_mesh":{"colorLayers":{},"uvLayers":{}}},"name":"Plane.406","primitives":[{"attributes":{"NORMAL":34,"POSITION":33,"TEXCOORD_0":35},"indices":32,"material":1,"mode":4}]}],"nodes":[{"extensions":{"S8S_v3d_node":{"frustumCulling":true,"groupNames":["Collection"],"hidden":false,"hidpiCompositing":false,"objectColor":[1.0,1.0,1.0,1.0],"objectIndex":0,"renderOrder":0,"useShadows":true}},"mesh":5,"name":"suelo","scale":[10.890000343322754,419.63726806640625,4.110000133514404],"translation":[10.890000343322754,0.0,-4.110000133514404]},{"extensions":{"S8S_v3d_node":{"frustumCulling":true,"groupNames":["Collection"],"hidden":false,"hidpiCompositing":false,"objectColor":[1.0,1.0,1.0,1.0],"objectIndex":0,"renderOrder":0,"useShadows":true}},"mesh":7,"name":"pared3","rotation":[0.5,-0.5,0.5,0.5],"scale":[4.110000133514404,1.0,6.75],"translation":[21.780000686645508,6.75,-4.110000133514404]},{"extensions":{"S8S_v3d_node":{"frustumCulling":true,"groupNames":["Collection"],"hidden":false,"hidpiCompositing":false,"objectColor":[1.0,1.0,1.0,1.0],"objectIndex":0,"renderOrder":0,"useShadows":true}},"mesh":6,"name":"pared1","rotation":[3.090862321641907e-08,-0.7071068286895752,0.7071068286895752,3.090862321641907e-08],"scale":[10.890000343322754,1.0,6.75],"translation":[10.890000343322754,6.75,-0.0]},{"extensions":{"S8S_v3d_node":{"frustumCulling":true,"groupNames":["Collection"],"hidden":false,"hidpiCompositing":false,"objectColor":[1.0,1.0,1.0,1.0],"objectIndex":0,"renderOrder":0,"useShadows":true}},"mesh":0,"name":"maquinaDeFrio","scale":[1.5,4.199999809265137,1.5],"translation":[13.5,4.199999809265137,-4.110000133514404]},{"extensions":{"S8S_v3d_node":{"frustumCulling":true,"groupNames":["Collection"],"hidden":false,"hidpiCompositing":false,"objectColor":[1.0,1.0,1.0,1.0],"objectIndex":0,"renderOrder":0,"useShadows":true}},"mesh":8,"name":"pared2","rotation":[0.5,0.5,-0.5,0.5],"scale":[4.110000133514404,1.0,6.75],"translation":[0.0,6.75,-4.110000133514404]},{"extensions":{"S8S_v3d_node":{"frustumCulling":true,"groupNames":["Collection"],"hidden":false,"hidpiCompositing":false,"objectColor":[1.0,1.0,1.0,1.0],"objectIndex":0,"renderOrder":0,"useShadows":true}},"mesh":2,"name":"estanteriaGrande","scale":[4.5,0.019999999552965164,0.9750000238418579],"translation":[6.75,6.400000095367432,-0.9750000238418579]},{"extensions":{"S8S_v3d_node":{"frustumCulling":true,"groupNames":["Collection"],"hidden":false,"hidpiCompositing":false,"objectColor":[1.0,1.0,1.0,1.0],"objectIndex":0,"renderOrder":0,"useShadows":true}},"mesh":3,"name":"estanteriaPeque1","scale":[1.5,0.019999999552965164,0.9750000238418579],"translation":[3.75,6.400000095367432,-7.244999885559082]},{"extensions":{"S8S_v3d_node":{"frustumCulling":true,"groupNames":["Collection"],"hidden":false,"hidpiCompositing":false,"objectColor":[1.0,1.0,1.0,1.0],"objectIndex":0,"renderOrder":0,"useShadows":true}},"mesh":4,"name":"estanteriaPeque2","rotation":[0.0,0.7071068286895752,-0.0,0.7071068286895752],"scale":[1.5,0.019999999552965164,0.9750000238418579],"translation":[0.9750000238418579,6.400000095367432,-3.4000000953674316]},{"extensions":{"S8S_v3d_lights":{"light":0},"S8S_v3d_node":{"frustumCulling":true,"groupNames":["Collection"],"hidden":false,"hidpiCompositing":false,"objectColor":[1.0,1.0,1.0,1.0],"objectIndex":0,"renderOrder":0}},"name":"Point","rotation":[-0.7071068286895752,0.0,0.0,0.7071068286895752],"scale":[1.0,0.9999999403953552,0.9999999403953552],"translation":[12.295075416564941,21.04193687438965,-12.86069393157959]},{"extensions":{"S8S_v3d_node":{"frustumCulling":true,"groupNames":["Collection"],"hidden":false,"hidpiCompositing":false,"objectColor":[1.0,1.0,1.0,1.0],"objectIndex":0,"renderOrder":0,"useShadows":true}},"mesh":1,"name":"servidores","scale":[1.0699999332427979,0.06300000101327896,1.6999998092651367],"translation":[17.961200714111328,5.956538200378418,-3.8775599002838135]},{"camera":0,"name":"__DEFAULT_CAMERA__","rotation":[-0.08972038328647614,-0.9084396958351135,-0.3170357048511505,0.25724685192108154],"scale":[0.9999997019767761,0.9999997615814209,0.9999997615814209],"translation":[-7.35577392578125,28.064104080200195,-27.059492111206055]}],"scene":0,"scenes":[{"extensions":{"S8S_v3d_scene":{"aaMethod":"AUTO","iblEnvironmentMode":"PMREM","physicallyCorrectLights":true,"pmremMaxTileSize":512,"shadowMap":{"esmDistanceScale":1.0,"renderReverseSided":false,"renderSingleSided":true,"type":"PCFPOISSON"},"worldMaterial":0}},"extras":{"animFrameRate":24,"coordSystem":"Z_UP_RIGHT"},"name":"Scene","nodes":[0,2,1,4,3,5,6,7,8,9,10]}]}
